HIERARCHY
ROOT Hips
{
	OFFSET -0.001795 -0.223333 0.028219
	CHANNELS 6 Xposition Yposition Zposition Zrotation Yrotation Xrotation 
	JOINT LeftUpLeg
	{
		OFFSET 0.069520 -0.091406 -0.006815
		CHANNELS 3 Zrotation Yrotation Xrotation
		JOINT LeftLeg
		{
			OFFSET 0.034277 -0.375199 -0.004496
			CHANNELS 3 Zrotation Yrotation Xrotation
			JOINT LeftFoot
			{
				OFFSET -0.013596 -0.397961 -0.043693
				CHANNELS 3 Zrotation Yrotation Xrotation
				JOINT LeftToe
				{
					OFFSET 0.026358 -0.055791 0.119288
					CHANNELS 3 Zrotation Yrotation Xrotation
					End Site
					{
						OFFSET 0.000000 0.000000 0.000000
					}
				}
			}
		}
	}
	JOINT RightUpLeg
	{
		OFFSET -0.067670 -0.090522 -0.004320
		CHANNELS 3 Zrotation Yrotation Xrotation
		JOINT RightLeg
		{
			OFFSET -0.038290 -0.382569 -0.008850
			CHANNELS 3 Zrotation Yrotation Xrotation
			JOINT RightFoot
			{
				OFFSET 0.015774 -0.398415 -0.042312
				CHANNELS 3 Zrotation Yrotation Xrotation
				JOINT RightToe
				{
					OFFSET -0.025372 -0.048144 0.123348
					CHANNELS 3 Zrotation Yrotation Xrotation
					End Site
					{
						OFFSET 0.000000 0.000000 0.000000
					}
				}
			}
		}
	}
	JOINT Spine
	{
		OFFSET -0.002533 0.108963 -0.026696
		CHANNELS 3 Zrotation Yrotation Xrotation
		JOINT Spine1
		{
			OFFSET 0.005487 0.135180 0.001092
			CHANNELS 3 Zrotation Yrotation Xrotation
			JOINT Spine2
			{
				OFFSET 0.001457 0.052922 0.025425
				CHANNELS 3 Zrotation Yrotation Xrotation
				JOINT Neck
				{
					OFFSET -0.002778 0.213870 -0.042857
					CHANNELS 3 Zrotation Yrotation Xrotation
					JOINT Head
					{
						OFFSET 0.005152 0.064970 0.051349
						CHANNELS 3 Zrotation Yrotation Xrotation
						End Site
						{
							OFFSET 0.000000 0.000000 0.000000
						}
					}
				}
				JOINT LeftShoulder
				{
					OFFSET 0.078845 0.121749 -0.034090
					CHANNELS 3 Zrotation Yrotation Xrotation
					JOINT LeftArm
					{
						OFFSET 0.090977 0.030469 -0.008868
						CHANNELS 3 Zrotation Yrotation Xrotation
						JOINT LeftForeArm
						{
							OFFSET 0.259612 -0.012772 -0.027456
							CHANNELS 3 Zrotation Yrotation Xrotation
							JOINT LeftHand
							{
								OFFSET 0.249234 0.008986 -0.001171
								CHANNELS 3 Zrotation Yrotation Xrotation
								End Site
								{
									OFFSET 0.000000 0.000000 0.000000
								}
							}
						}
					}
				}
				JOINT RightShoulder
				{
					OFFSET -0.081759 0.118833 -0.038615
					CHANNELS 3 Zrotation Yrotation Xrotation
					JOINT RightArm
					{
						OFFSET -0.096012 0.032551 -0.009143
						CHANNELS 3 Zrotation Yrotation Xrotation
						JOINT RightForeArm
						{
							OFFSET -0.253742 -0.013329 -0.021401
							CHANNELS 3 Zrotation Yrotation Xrotation
							JOINT RightHand
							{
								OFFSET -0.255298 0.007772 -0.005559
								CHANNELS 3 Zrotation Yrotation Xrotation
								End Site
								{
									OFFSET 0.000000 0.000000 0.000000
								}
							}
						}
					}
				}
			}
		}
	}
}
MOTION
Frames: 9
Frame Time: 0.050000
0.000000 0.943313 0.000000 -0.536803 -5.290631 5.842034 4.047678 -0.215090 -2.514059 1.064024 0.055607 -4.127986 -0.106774 2.043455 6.302701 0.000000 0.000000 0.000000 -2.941245 0.488879 -4.757924 -1.536824 0.096772 -0.880023 0.470042 -2.069537 5.787151 0.000000 0.000000 0.000000 4.183884 0.038136 -1.940549 -1.976976 0.914181 -2.586487 -1.197497 3.641979 4.544184 4.341544 -1.316978 -16.438657 0.000000 0.000000 0.000000 -14.821599 0.742181 -1.962912 -33.363925 -9.127793 -1.551041 2.649336 -13.533960 0.182877 0.000000 0.000000 0.000000 12.199852 -4.677019 -3.148793 37.587347 8.481307 -1.186902 -3.535451 20.186139 0.142873 0.000000 0.000000 0.000000 
-0.000008 0.943015 -0.000467 -0.871299 -5.948362 6.174434 4.215834 -0.177893 -1.876123 1.456691 0.116258 -5.967513 -0.291151 1.783480 6.723125 0.000000 0.000000 0.000000 -2.652804 0.535055 -5.328104 -1.533845 0.081470 -1.121804 0.700485 -1.830926 6.206855 0.000000 0.000000 0.000000 4.847867 0.002826 -1.650916 -2.216299 1.011083 -2.952819 -1.855744 5.031946 3.944628 5.148680 -1.390204 -18.552621 0.000000 0.000000 0.000000 -13.980620 0.766196 -2.096805 -33.075980 -10.350945 -1.134425 2.356695 -12.454242 0.176058 0.000000 0.000000 0.000000 11.827672 -6.004262 -3.565818 38.862428 7.676320 -1.441092 -3.783455 20.333367 0.157853 0.000000 0.000000 0.000000 
0.000097 0.942450 -0.001002 -0.841688 -6.044711 6.079442 4.142950 -0.206851 -2.432698 1.819512 0.003802 -4.320612 -0.578840 0.728131 5.231647 0.000000 0.000000 0.000000 -2.368211 0.590227 -6.032443 -1.592604 0.150880 0.067531 0.315940 -2.072846 4.996946 0.000000 0.000000 0.000000 5.126086 -0.060698 -0.944321 -1.817348 0.820443 -4.708847 -2.602137 5.986812 5.105505 6.143941 -1.990337 -17.792709 0.000000 0.000000 0.000000 -12.814497 0.292762 -1.849840 -33.822517 -10.100806 -1.254373 2.581079 -12.320086 0.134650 0.000000 0.000000 0.000000 12.780792 -5.427769 -3.251157 37.996496 7.415518 -1.646225 -3.468749 20.117206 0.245510 0.000000 0.000000 0.000000 
0.000280 0.942301 -0.001493 -0.943463 -5.605652 6.649871 4.586437 -0.234910 -2.848511 1.137260 0.076958 -4.713929 -1.105421 -0.124970 5.599302 0.000000 0.000000 0.000000 -2.313635 0.670774 -6.974021 -1.482857 0.157745 0.367829 -0.099917 -3.199294 5.464407 0.000000 0.000000 0.000000 4.942468 -0.048180 -1.175706 -1.742306 0.794814 -4.482566 -2.286023 5.244405 4.615384 5.879209 -1.842740 -18.076085 0.000000 0.000000 0.000000 -12.533895 1.204822 -2.150974 -34.397265 -10.794193 -1.085951 3.987019 -11.468039 -0.001422 0.000000 0.000000 0.000000 11.542515 -5.656770 -3.304668 38.420667 7.467652 -1.548992 -2.992845 20.380163 0.298476 0.000000 0.000000 0.000000 
0.000520 0.942176 -0.001800 -0.969550 -5.822374 6.546160 4.172002 -0.244374 -3.006388 1.501874 0.018732 -4.106258 -0.755144 0.264937 4.857869 0.000000 0.000000 0.000000 -2.192461 0.699785 -7.304992 -1.742653 0.217852 0.987985 -0.153098 -3.202595 5.186456 0.000000 0.000000 0.000000 4.905683 -0.082778 -0.735446 -1.617473 0.738003 -4.824796 -2.226746 5.798527 4.744896 6.044111 -1.997140 -17.379476 0.000000 0.000000 0.000000 -12.158958 0.922024 -2.029890 -34.145078 -10.582869 -1.124178 3.832661 -11.921361 0.004443 0.000000 0.000000 0.000000 10.985437 -5.727807 -3.217448 38.017817 7.368467 -1.588457 -2.550680 20.663297 0.389675 0.000000 0.000000 0.000000 
0.000787 0.941809 -0.001839 -1.073176 -5.929255 6.625051 3.825662 -0.253566 -3.085093 1.858636 -0.027728 -3.767579 -0.661456 0.251115 4.331801 0.000000 0.000000 0.000000 -2.356002 0.721160 -7.568545 -1.731332 0.220843 1.065026 -0.267483 -3.572675 5.416156 0.000000 0.000000 0.000000 4.787104 -0.098920 -0.535283 -1.447947 0.665905 -4.707319 -1.949325 5.576110 4.708715 6.109498 -2.013285 -17.762602 0.000000 0.000000 0.000000 -11.670230 1.718895 -2.269478 -34.201559 -10.519639 -1.159488 4.023097 -12.150173 -0.009847 0.000000 0.000000 0.000000 9.808428 -5.639825 -3.078674 38.103738 7.944571 -1.393695 -2.025182 20.495849 0.455208 0.000000 0.000000 0.000000 
0.000991 0.941549 -0.001758 -1.127845 -5.874842 6.443011 3.876320 -0.245337 -2.981230 1.878265 -0.042662 -3.513559 -0.416090 0.764391 4.408269 0.000000 0.000000 0.000000 -2.145722 0.729790 -7.651340 -2.035228 0.282610 1.561459 -0.347673 -3.623202 5.152252 0.000000 0.000000 0.000000 4.722972 -0.133060 -0.077991 -1.458283 0.671157 -4.631244 -2.002563 5.339787 4.458425 6.491722 -2.266831 -17.655915 0.000000 0.000000 0.000000 -11.618788 1.604495 -2.188430 -33.696232 -10.141639 -1.234985 3.938864 -13.112187 -0.000561 0.000000 0.000000 0.000000 9.928647 -5.385705 -3.001902 37.088139 7.883512 -1.374525 -1.449522 20.922075 0.547106 0.000000 0.000000 0.000000 
0.001177 0.941027 -0.001628 -1.125388 -5.898549 6.324069 3.661198 -0.253935 -3.105109 2.030058 -0.089208 -2.883926 0.132582 1.617047 3.740720 0.000000 0.000000 0.000000 -2.058320 0.776244 -8.175520 -2.074047 0.351079 2.595231 -0.436874 -3.518697 4.508589 0.000000 0.000000 0.000000 4.574565 -0.173020 0.477202 -1.294051 0.601586 -4.674628 -2.034036 5.301422 4.437879 7.123825 -2.684792 -17.364360 0.000000 0.000000 0.000000 -10.769793 1.576584 -2.047712 -33.071314 -9.672735 -1.338655 3.253246 -14.423576 0.080122 0.000000 0.000000 0.000000 9.230186 -5.553995 -2.996919 36.739547 7.903267 -1.356717 -1.233051 21.989099 0.617024 0.000000 0.000000 0.000000 
0.001357 0.940656 -0.001725 -1.222476 -6.053395 6.262041 3.386139 -0.269053 -3.320257 2.362197 -0.160919 -2.140246 0.661861 2.487997 3.192214 0.000000 0.000000 0.000000 -1.996606 0.819648 -8.649275 -2.090740 0.401308 3.357179 -0.364227 -3.251846 4.274761 0.000000 0.000000 0.000000 4.447345 -0.188098 0.728353 -1.271499 0.590862 -4.353842 -1.812711 5.025896 4.378086 6.921991 -2.606081 -17.348714 0.000000 0.000000 0.000000 -9.742174 1.732750 -1.919714 -32.830622 -9.587062 -1.373318 3.056477 -15.957877 0.121915 0.000000 0.000000 0.000000 8.193178 -5.171252 -2.743854 36.545385 7.951798 -1.314014 -0.874921 22.877995 0.690044 0.000000 0.000000 0.000000 
